<svg width="32" height="32" fill="none" xmlns="http://www.w3.org/2000/svg"><g clip-path="url(#clip0_25_261)"><path d="M12.182 14.727H9.636v2.546h2.546v-2.546zm5.09 0h-2.545v2.546h2.546v-2.546zm5.092 0h-2.546v2.546h2.546v-2.546zm2.545-8.91h-1.273V3.273h-2.545v2.546H10.909V3.272H8.364v2.546H7.09a2.534 2.534 0 00-2.533 2.545l-.013 17.819c0 1.4 1.133 2.545 2.546 2.545h17.818c1.4 0 2.546-1.145 2.546-2.545V8.363c0-1.4-1.146-2.545-2.546-2.545zm0 20.365H7.091v-14h17.818v14z" fill="#323232"/></g><defs><clipPath id="clip0_25_261"><path fill="#fff" transform="translate(.727 .727)" d="M0 0h30.546v30.546H0z"/></clipPath></defs></svg>