<svg width="176" height="54" fill="none" xmlns="http://www.w3.org/2000/svg"><g clip-path="url(#clip0_148_34)" fill-rule="evenodd" clip-rule="evenodd"><path d="M78.9 18.7c-.6 1.8-1.6 3.2-2.9 4.2-1.4 1.1-3 1.6-4.8 1.6-2.3 0-4.3-.8-6-2.4-1.6-1.6-2.5-3.6-2.5-5.9 0-2.3.8-4.2 2.4-5.8C66.7 8.8 68.7 8 71 8c1.9 0 3.6.5 4.9 1.6 1.3 1.1 2.4 2.5 2.9 4.3H75c-.9-1.7-2.2-2.6-4-2.6-1.4 0-2.5.5-3.3 1.4-.9 1-1.3 2.1-1.3 3.5s.4 2.5 1.3 3.6c.9 1 2 1.5 3.3 1.5 1.8 0 3.1-.8 3.9-2.5h4v-.1zM92.7 8.3h-3.8l-3 8.1-3.5-8.1h-3.9l5.4 12.1-1.5 3.8h3.7l6.6-15.9zm10.5 15.9h-12V21h1.4l4.1-12.7h4.1l4.1 12.7h1.4v3.2h-3.1zm-1.8-3.2l-2.6-8.5-2.6 8.5h5.2zM76.1 45.7h-3.5v-9.9l-6.7 9.9h-3V29.8h3.6v9.8l6.7-9.8h3v15.9h-.1zm15.6 0h-3.6v-6.6h-5.6v6.6H79V29.8h3.6V36h5.6v-6.2h3.6v15.9h-.1zm14.1-4.9c0 3.3-1.9 4.9-5.8 4.9h-5.3V29.8h5.3c1.5 0 2.7.3 3.6.9 1 .7 1.6 1.8 1.6 3.2 0 1.5-.6 2.6-1.8 3.2 1.5.6 2.4 1.9 2.4 3.7zm-4.3-6.3c0-1-.6-1.5-1.9-1.5h-1.5v3.1h1.4c1.3 0 2-.5 2-1.6zm-3.4 4.4v3.6h1.9c1.5 0 2.2-.6 2.2-1.8 0-1.2-.7-1.8-2.2-1.8h-1.9zm18.6 6.8H108V29.8h8.7V33h-5.1v3h5v3.2h-5v3.3h5.1v3.2zm18.1-5.5c-.6 1.8-1.6 3.2-2.9 4.2-1.4 1.1-3 1.6-4.8 1.6-2.3 0-4.3-.8-6-2.4-1.6-1.6-2.5-3.6-2.5-5.9 0-2.3.8-4.2 2.4-5.8 1.6-1.6 3.6-2.4 5.9-2.4 1.9 0 3.6.5 4.9 1.6 1.4 1 2.4 2.5 2.9 4.3h-3.9c-.9-1.7-2.2-2.6-4-2.6-1.4 0-2.5.5-3.3 1.4-.9 1-1.3 2.1-1.3 3.5s.4 2.5 1.3 3.6c.9 1 2 1.5 3.3 1.5 1.8 0 3.1-.8 3.9-2.5h4.1v-.1zM145 33h-3.2v12.7h-3.6V33h-3.1v-3.2h9.9V33zm8.6 13c-2.3 0-4.3-.8-5.9-2.4-1.6-1.6-2.4-3.6-2.4-5.9 0-2.3.8-4.3 2.4-5.9 1.6-1.6 3.6-2.4 5.9-2.4 2.3 0 4.3.8 5.9 2.4 1.6 1.6 2.4 3.5 2.4 5.9 0 2.3-.8 4.3-2.4 5.9-1.6 1.6-3.5 2.4-5.9 2.4zm0-13.2c-1.3 0-2.4.5-3.3 1.5-.9 1-1.4 2.2-1.4 3.5 0 1.3.5 2.5 1.4 3.5.9 1 2 1.5 3.3 1.5 1.4 0 2.5-.5 3.4-1.5.9-1 1.3-2.1 1.3-3.5s-.4-2.5-1.3-3.5c-.9-1.1-2-1.5-3.4-1.5zm14.1 12.9h-3.6V29.8h5.6c1.8 0 3.2.4 4.2 1.3 1.1.9 1.6 2.3 1.6 4.1 0 1.8-.6 3.1-1.8 4-1.1.8-2.5 1.2-4.4 1.2h-1.7v5.3h.1zm0-12.7v4.2h1.6c1.8 0 2.7-.7 2.7-2.1 0-1.4-.9-2.1-2.7-2.1h-1.6z" fill="#323030"/><path d="M46.2 34.7l7.6-7.7-7.6-7.6H34.7l7.7 7.6-7.7 7.7h11.5z" fill="#FFB000"/><path d="M0 27l26.9 26.9V42.5L11.5 27H0z" fill="#1245B5"/><path d="M0 27L26.9.1l5.7 5.7L11.4 27H0z" fill="#2753FE"/><path d="M21.2 5.8l10.1 10.1h11.3L26.9.1l-5.7 5.7z" fill="#6985FF"/><path d="M26.9 53.9l15.8-15.8H31.3L21.2 48.3l5.7 5.6z" fill="#4660D4"/></g><defs><clipPath id="clip0_148_34"><path fill="#fff" transform="translate(0 .1)" d="M0 0h175.5v53.8H0z"/></clipPath></defs></svg>