<svg width="32" height="32" fill="none" xmlns="http://www.w3.org/2000/svg"><g clip-path="url(#clip0_26_271)"><path d="M18.546 3.272H8.364a2.553 2.553 0 00-2.546 2.546v20.364c0 1.4 1.146 2.545 2.546 2.545h15.272c1.4 0 2.546-1.145 2.546-2.545V10.909l-7.636-7.637zm1.272 11.455h-5.09V16h3.818c.7 0 1.272.573 1.272 1.273v3.818c0 .7-.573 1.272-1.273 1.272h-1.272v1.273h-2.546v-1.273h-2.545v-2.545h5.09v-1.273h-3.817c-.7 0-1.273-.573-1.273-1.273v-3.818c0-.7.573-1.272 1.273-1.272h1.272v-1.273h2.546v1.273h2.545v2.545z" fill="#323232"/></g><defs><clipPath id="clip0_26_271"><path fill="#fff" transform="translate(.727 .727)" d="M0 0h30.546v30.546H0z"/></clipPath></defs></svg>