<svg width="67" height="67" fill="none" xmlns="http://www.w3.org/2000/svg"><g clip-path="url(#clip0_22_193)"><path fill-rule="evenodd" clip-rule="evenodd" d="M29.99 27.561c7.334 0 13.28-5.946 13.28-13.28C43.27 6.946 37.324 1 29.99 1c-7.335 0-13.281 5.946-13.281 13.28 0 7.335 5.946 13.281 13.28 13.281zm23.874 2.034c-6.603 0-11.976 5.215-11.976 11.627 0 6.41 5.372 11.626 11.976 11.626 6.604 0 11.976-5.215 11.976-11.627 0-6.41-5.372-11.626-11.976-11.626zm7.786 10.472l-3.805 2.691 1.45 4.342a1.045 1.045 0 01-1.594 1.184l-3.836-2.712-3.836 2.712a1.045 1.045 0 01-1.594-1.184l1.45-4.342-3.805-2.691a1.043 1.043 0 01.602-1.898h4.735l1.457-4.364a1.044 1.044 0 011.982 0l1.457 4.364h4.735a1.045 1.045 0 01.603 1.898h-.001zM39.8 41.222c0-.899.09-1.795.269-2.675a22.819 22.819 0 00-10.08-2.331c-6.16 0-11.89 2.39-16.135 6.729-4.089 4.179-6.437 9.832-6.675 16.012h36.83v-7.961a13.51 13.51 0 01-4.21-9.774zm14.77-1.676l-.705-2.111-.705 2.11a1.045 1.045 0 01-.991.714h-2.2l1.755 1.242c.376.266.533.747.388 1.184l-.687 2.053 1.835-1.298a1.045 1.045 0 011.206 0l1.836 1.298-.686-2.054a1.045 1.045 0 01.388-1.184l1.755-1.24h-2.2a1.047 1.047 0 01-.989-.714zM46.097 68V52.65h.001a14.334 14.334 0 0015.535 0V68l-7.059-6.537c-.4-.37-1.02-.37-1.42 0L46.097 68z" fill="url(#paint0_linear_22_193)"/></g><defs><linearGradient id="paint0_linear_22_193" x1="36.51" y1="1" x2="36.509" y2="68" gradientUnits="userSpaceOnUse"><stop stop-color="#B848FF"/><stop offset="1" stop-color="#EE7CFF"/></linearGradient><clipPath id="clip0_22_193"><path fill="#fff" d="M0 0h67v67H0z"/></clipPath></defs></svg>