<svg width="102" height="102" fill="none" xmlns="http://www.w3.org/2000/svg"><path fill-rule="evenodd" clip-rule="evenodd" d="M67.773 51.524a17.27 17.27 0 01-15.39-9.435h-21.3a4.725 4.725 0 01-4.718-4.717v-6.29a4.725 4.725 0 014.718-4.718h21.302a16.962 16.962 0 015.451-6.29H27.937a7.865 7.865 0 00-7.863 7.863v37.74a7.865 7.865 0 007.863 7.862h1.572v-3.166a4.722 4.722 0 01.524-9.414h29.354a4.722 4.722 0 01.524 9.414v3.166h1.572a7.866 7.866 0 007.863-7.862V51.46c-.461.042-1.007.063-1.573.063zm-33.546 5.242a1.572 1.572 0 111.572-1.573 1.584 1.584 0 01-1.572 1.573zm0-8.387a1.572 1.572 0 111.572-1.572 1.584 1.584 0 01-1.572 1.572zm10.483 8.387a1.572 1.572 0 111.573-1.573 1.584 1.584 0 01-1.573 1.573zm0-8.387a1.572 1.572 0 111.573-1.572 1.584 1.584 0 01-1.573 1.572zm10.483 8.387a1.572 1.572 0 111.573-1.573 1.584 1.584 0 01-1.573 1.573zm-4.067-27.257H31.082a1.584 1.584 0 00-1.573 1.573v6.29a1.584 1.584 0 001.573 1.572h20.044a17.443 17.443 0 010-9.435zm8.26 34.595H30.034a1.573 1.573 0 100 3.145h2.621v9.96a4.723 4.723 0 004.718 4.717h14.676a4.724 4.724 0 004.718-4.718V67.25h2.62a1.573 1.573 0 000-3.145zm-1.62-39.885a14.153 14.153 0 0110.008-4.145 14.174 14.174 0 0114.152 14.153 14.327 14.327 0 01-14.153 14.152 14.152 14.152 0 01-10.007-24.16zm11.12 8.896a1.573 1.573 0 00-1.112-.46h-2.558a3.728 3.728 0 013.753-3.146 3.79 3.79 0 013.606 2.516 1.57 1.57 0 102.977-1.006 6.953 6.953 0 00-13.482 1.635h-.587a1.573 1.573 0 100 3.145h.588a6.871 6.871 0 006.898 6.29 6.952 6.952 0 006.394-4.151 1.578 1.578 0 00-2.893-1.258 3.775 3.775 0 01-3.501 2.264 3.728 3.728 0 01-3.753-3.145h2.558a1.573 1.573 0 001.111-2.684z" fill="url(#paint0_linear_22_91)"/><defs><linearGradient id="paint0_linear_22_91" x1="51" y1="20.074" x2="51" y2="81.926" gradientUnits="userSpaceOnUse"><stop stop-color="#B444FF"/><stop offset="1" stop-color="#F582FF"/></linearGradient></defs></svg>