<svg width="78" height="77" fill="none" xmlns="http://www.w3.org/2000/svg"><path fill-rule="evenodd" clip-rule="evenodd" d="M70.182 29.753A32.572 32.572 0 0060.81 8.944 30.318 30.318 0 0039.313 0a30.318 30.318 0 00-21.497 8.944 32.573 32.573 0 00-9.372 20.809 30.618 30.618 0 001.845 12.57c1.458 4.006 3.844 7.795 7.092 11.263L39.313 77l21.931-23.415c3.248-3.468 5.635-7.257 7.093-11.263a30.593 30.593 0 001.845-12.57zM39.304 53.01l-.245-.001C26.331 52.873 16.09 42.12 16.23 29.037a23.91 23.91 0 016.93-16.691A22.658 22.658 0 0139.568 5.56a22.66 22.66 0 0116.259 7.135 23.912 23.912 0 016.57 16.837C62.257 42.53 51.921 53.01 39.304 53.01zm.01-26.5c3.549 0 6.427-2.883 6.427-6.442 0-3.558-2.878-6.442-6.428-6.442s-6.428 2.884-6.428 6.442c0 3.559 2.879 6.443 6.428 6.443zM27.668 46.892c.15-6.34 5.317-11.403 11.644-11.411 6.321.008 11.485 5.062 11.643 11.396a20.143 20.143 0 01-11.652 3.718h-.109l-.11-.001a20.125 20.125 0 01-11.416-3.702zm-2.8-32.842a20.27 20.27 0 0114.673-6.072 20.229 20.229 0 0114.54 6.386c8.071 8.577 7.841 22.042-.517 30.337-1.193-6.957-7.214-12.042-14.258-12.039-7.044.004-13.06 5.094-14.246 12.053-8.485-8.42-8.571-22.137-.192-30.665zm5.205 6.02c0 5.115 4.137 9.261 9.24 9.261 5.101-.005 9.235-4.148 9.24-9.261 0-5.114-4.136-9.261-9.24-9.261-5.103 0-9.24 4.147-9.24 9.261z" fill="url(#paint0_linear_22_210)"/><defs><linearGradient id="paint0_linear_22_210" x1="39.313" y1="0" x2="39.312" y2="77" gradientUnits="userSpaceOnUse"><stop stop-color="#B545FF"/><stop offset="1" stop-color="#F381FF"/></linearGradient></defs></svg>