<svg width="15" height="15" fill="none" xmlns="http://www.w3.org/2000/svg"><path d="M7.503.3h-.004C3.529.3.301 3.529.301 7.5c0 1.575.507 3.035 1.37 4.22l-.897 2.675 2.768-.885a7.138 7.138 0 003.96 1.19c3.97 0 7.199-3.23 7.199-7.2S11.472.3 7.503.3zm4.19 10.167c-.175.49-.864.897-1.414 1.016-.376.08-.868.144-2.522-.542-2.116-.876-3.478-3.026-3.584-3.166-.102-.14-.855-1.138-.855-2.171 0-1.034.524-1.537.736-1.753.173-.177.46-.258.736-.258.09 0 .17.004.241.008.212.009.318.022.457.356.174.418.597 1.451.647 1.557.052.107.103.25.031.39-.067.144-.127.208-.233.33-.106.123-.207.216-.313.348-.097.114-.207.237-.085.448.123.207.546.897 1.168 1.452.804.715 1.456.944 1.689 1.041.173.072.38.055.507-.08.161-.174.36-.462.563-.745.144-.204.326-.229.516-.157.195.068 1.224.576 1.435.681.212.107.351.157.402.246.05.09.05.508-.123 1z" fill="#fff"/></svg>