<svg width="84" height="84" fill="none" xmlns="http://www.w3.org/2000/svg"><path d="M67.786 2.86A8.771 8.771 0 0061.541.266H19.12a8.841 8.841 0 00-8.838 8.838v58.917a1.735 1.735 0 00.943 1.555 1.83 1.83 0 001.814-.094l6.08-4.054 6.104 4.054a1.78 1.78 0 001.98 0l6.08-4.054 6.08 4.054a1.78 1.78 0 001.98 0l6.08-4.054 6.057 4.054a1.773 1.773 0 002.757-1.461V22.656H68.61a1.78 1.78 0 001.767-1.768V9.105a8.771 8.771 0 00-2.592-6.246zM33.261 25.011a6.46 6.46 0 01-1.768-12.679v-.872a1.768 1.768 0 013.535 0v.59h2.946a1.767 1.767 0 110 3.534h-4.713a2.946 2.946 0 000 5.892 6.46 6.46 0 011.767 12.68v.871a1.767 1.767 0 11-3.535 0v-.589h-2.946a1.768 1.768 0 010-3.535h4.714a2.946 2.946 0 100-5.892zm9.426 30.637H23.834a1.768 1.768 0 010-3.535h18.853a1.768 1.768 0 010 3.535zm4.714-9.427H19.12a1.768 1.768 0 010-3.535H47.4a1.768 1.768 0 010 3.535zM66.843 19.12H56.238V9.105a5.31 5.31 0 015.303-5.303 5.31 5.31 0 015.302 5.303V19.12z" fill="url(#paint0_linear_22_160)"/><defs><linearGradient id="paint0_linear_22_160" x1="40.331" y1=".267" x2="40.331" y2="69.783" gradientUnits="userSpaceOnUse"><stop stop-color="#BC4BFF"/><stop offset="1" stop-color="#F07DFF"/></linearGradient></defs></svg>