<svg width="63" height="63" fill="none" xmlns="http://www.w3.org/2000/svg"><g clip-path="url(#clip0_22_217)"><path fill-rule="evenodd" clip-rule="evenodd" d="M47.912 7.881a28.7 28.7 0 00-16.457-5.125c-15.972 0-28.967 12.994-28.967 28.967-.008 3.83.75 7.624 2.228 11.158a1.245 1.245 0 11-2.295.96A31.252 31.252 0 010 31.723C0 14.379 14.11.268 31.454.268a31.164 31.164 0 0117.935 5.61l2.666-3.618a1.245 1.245 0 012.227.525l1.68 9.7a1.246 1.246 0 01-1.065 1.447L45.134 15.2a1.244 1.244 0 01-1.161-1.971l3.939-5.348zM41.534 18.04c0-.686-.557-1.244-1.244-1.244H22.71a1.244 1.244 0 000 2.488h5.03a6.309 6.309 0 016.175 5.055H22.71a1.244 1.244 0 100 2.488h11.205a6.308 6.308 0 01-6.175 5.055h-5.03a1.246 1.246 0 00-.854 2.147L34.429 45.91a1.243 1.243 0 101.709-1.808l-10.3-9.733h1.902a8.8 8.8 0 008.698-7.543h3.852a1.244 1.244 0 100-2.488h-3.852a8.773 8.773 0 00-2.58-5.054h6.432c.687 0 1.244-.557 1.244-1.244zM8.718 60.26a1.244 1.244 0 002.228.526l2.666-3.619a31.163 31.163 0 0017.933 5.61C48.89 62.777 63 48.667 63 31.322c.008-4.16-.815-8.28-2.42-12.118a1.245 1.245 0 10-2.296.96 28.773 28.773 0 012.228 11.158c0 15.973-12.994 28.967-28.967 28.967a28.7 28.7 0 01-16.458-5.126l3.94-5.346a1.246 1.246 0 00-1.161-1.972l-9.764 1.268a1.246 1.246 0 00-1.066 1.446l1.682 9.701z" fill="url(#paint0_linear_22_217)"/></g><defs><linearGradient id="paint0_linear_22_217" x1="31.5" y1=".268" x2="31.5" y2="62.777" gradientUnits="userSpaceOnUse"><stop stop-color="#B444FF"/><stop offset="1" stop-color="#F582FF"/></linearGradient><clipPath id="clip0_22_217"><path fill="#fff" d="M0 0h63v63H0z"/></clipPath></defs></svg>