<svg width="82" height="81" fill="none" xmlns="http://www.w3.org/2000/svg"><g clip-path="url(#clip0_22_120)"><path fill-rule="evenodd" clip-rule="evenodd" d="M48.624 18.346C49.42 9.85 56.638 3.353 65.276 3.354c6.992-.005 13.248 4.29 15.68 10.767 2.433 6.476.527 13.763-4.777 18.264-1.138-5.048-5.673-8.639-10.909-8.636-5.236.003-9.768 3.597-10.901 8.646a17.44 17.44 0 01-1.02-.938 16.325 16.325 0 01-4.725-13.111zm9.399-3.601c0 3.956 3.247 7.164 7.253 7.164 4.004-.005 7.248-3.21 7.252-7.164 0-3.957-3.247-7.165-7.252-7.165-4.006 0-7.253 3.208-7.253 7.165zm-6.63 18.611a18.998 18.998 0 01-5.587-13.482c0-.058.002-.116.004-.173l.003-.123h-12.49v17.321h22.882a19.503 19.503 0 01-4.813-3.543zm-27.38 44.238H39.89V56.733l-15.879-6.577v27.438zm-22.607 0A1.398 1.398 0 010 76.208V39.61h63.904v36.597a1.398 1.398 0 01-1.406 1.386H42.636V55.831c0-.546-.332-1.039-.842-1.25l-18.623-7.713a1.386 1.386 0 00-1.29.12 1.35 1.35 0 00-.613 1.13v29.476H1.406zM30.58 19.578H13.078a1.407 1.407 0 00-1.186.643L1.13 36.9h29.45V19.578zm39.204-4.834c0 2.46-2.018 4.454-4.508 4.454s-4.509-1.994-4.509-4.454 2.018-4.453 4.509-4.453c2.49 0 4.508 1.994 4.508 4.453zM56.873 34.16c.336-4.34 3.996-7.695 8.403-7.7 4.403.005 8.06 3.354 8.401 7.69a16.781 16.781 0 01-8.401 2.245c-.076 0-.15-.001-.227-.003h-.078a16.773 16.773 0 01-8.098-2.232z" fill="url(#paint0_linear_22_120)"/></g><defs><linearGradient id="paint0_linear_22_120" x1="41.001" y1="3.354" x2="41" y2="77.594" gradientUnits="userSpaceOnUse"><stop stop-color="#C453FF"/><stop offset="1" stop-color="#EF97FF"/></linearGradient><clipPath id="clip0_22_120"><path fill="#fff" d="M0 0h82v81H0z"/></clipPath></defs></svg>